<?xml version="1.0"?>
<svg xmlns="http://www.w3.org/2000/svg" viewBox="0 0 64 64">
    <path d="M 57.576172 1.59375 C 57.320422 1.59375 57.064641 1.6912187 56.869141 1.8867188 L 50.505859 8.2519531 L 49.798828 7.5449219 C 48.099828 5.8449219 45.838547 4.9082031 43.435547 4.9082031 C 41.031547 4.9082031 38.771266 5.8449219 37.072266 7.5449219 L 32.050781 12.564453 C 31.239781 12.026453 30.288969 11.736328 29.292969 11.736328 C 27.956969 11.736328 26.701812 12.255219 25.757812 13.199219 L 25.050781 13.90625 C 24.270781 14.68625 24.270781 15.954375 25.050781 16.734375 L 29.292969 20.976562 L 24.34375 25.927734 C 23.17475 27.096734 23.17475 29.000922 24.34375 30.169922 C 24.90975 30.736922 25.663844 31.048828 26.464844 31.048828 C 27.266844 31.048828 28.019937 30.736922 28.585938 30.169922 L 33.535156 25.21875 L 37.779297 29.462891 L 32.828125 34.412109 C 31.660125 35.581109 31.660125 37.484297 32.828125 38.654297 C 33.394125 39.221297 34.148219 39.533203 34.949219 39.533203 C 35.751219 39.533203 36.506266 39.221297 37.072266 38.654297 L 42.021484 33.703125 L 46.265625 37.947266 C 46.655625 38.337266 47.167687 38.53125 47.679688 38.53125 C 48.191688 38.53125 48.70375 38.337266 49.09375 37.947266 L 49.800781 37.240234 C 50.744781 36.296234 51.265625 35.040078 51.265625 33.705078 C 51.265625 32.709078 50.973547 31.758266 50.435547 30.947266 L 55.457031 25.925781 C 58.966031 22.416781 58.966031 16.706266 55.457031 13.197266 L 54.751953 12.490234 L 58.285156 8.9550781 C 58.676156 8.5640781 58.676156 7.9320156 58.285156 7.5410156 C 57.894156 7.1500156 57.260141 7.1549219 56.869141 7.5449219 L 53.335938 11.080078 L 52.626953 10.373047 L 51.919922 9.6640625 L 58.283203 3.3007812 C 58.674203 2.9097812 58.674203 2.2777188 58.283203 1.8867188 C 58.087703 1.6912187 57.831922 1.59375 57.576172 1.59375 z M 43.435547 6.9082031 C 45.304547 6.9082031 47.062766 7.6350312 48.384766 8.9570312 L 49.091797 9.6640625 L 51.212891 11.785156 L 54.042969 14.613281 C 56.771969 17.344281 56.771969 21.785625 54.042969 24.515625 L 49.091797 29.464844 L 33.535156 13.908203 L 38.484375 8.9570312 C 39.806375 7.6350312 41.565547 6.9082031 43.435547 6.9082031 z M 39.544922 11.847656 C 39.289047 11.847656 39.034844 11.945125 38.839844 12.140625 L 37.425781 13.554688 C 37.034781 13.945688 37.034781 14.57775 37.425781 14.96875 C 37.620781 15.16375 37.876813 15.261719 38.132812 15.261719 C 38.388813 15.261719 38.644844 15.16375 38.839844 14.96875 L 40.253906 13.554688 C 40.644906 13.163687 40.644906 12.531625 40.253906 12.140625 C 40.058406 11.945125 39.800797 11.847656 39.544922 11.847656 z M 29.292969 13.765625 C 30.070219 13.765625 30.847563 14.048734 31.414062 14.615234 L 48.384766 31.585938 C 48.950766 32.152938 49.263672 32.905031 49.263672 33.707031 C 49.263672 34.509031 48.950766 35.261125 48.384766 35.828125 L 47.679688 36.537109 L 47.677734 36.535156 L 26.464844 15.322266 L 27.171875 14.615234 C 27.738375 14.048734 28.515719 13.765625 29.292969 13.765625 z M 43.080078 15.382812 C 42.824328 15.382937 42.568547 15.480281 42.373047 15.675781 L 40.960938 17.089844 C 40.569938 17.480844 40.569938 18.113906 40.960938 18.503906 C 41.155938 18.698906 41.411969 18.796875 41.667969 18.796875 C 41.923969 18.796875 42.178047 18.698906 42.373047 18.503906 L 43.787109 17.089844 C 44.178109 16.698844 44.178109 16.065781 43.787109 15.675781 C 43.591609 15.480781 43.335828 15.382688 43.080078 15.382812 z M 46.617188 18.917969 C 46.361438 18.918094 46.105656 19.015938 45.910156 19.210938 L 44.496094 20.625 C 44.105094 21.016 44.105094 21.648062 44.496094 22.039062 C 44.691094 22.234063 44.947125 22.332031 45.203125 22.332031 C 45.459125 22.332031 45.715156 22.234063 45.910156 22.039062 L 47.324219 20.625 C 47.715219 20.234 47.715219 19.601938 47.324219 19.210938 C 47.128719 19.015437 46.872937 18.917844 46.617188 18.917969 z M 30.707031 22.392578 L 32.121094 23.808594 L 27.171875 28.757812 C 26.780875 29.146812 26.148813 29.148813 25.757812 28.757812 C 25.367812 28.367812 25.367812 27.73375 25.757812 27.34375 L 30.707031 22.392578 z M 50.152344 22.453125 C 49.896594 22.453125 49.640812 22.550594 49.445312 22.746094 L 48.03125 24.160156 C 47.64025 24.551156 47.64025 25.183219 48.03125 25.574219 C 48.22625 25.769219 48.482281 25.867187 48.738281 25.867188 C 48.994281 25.867188 49.250313 25.769219 49.445312 25.574219 L 50.859375 24.160156 C 51.250375 23.769156 51.250375 23.137094 50.859375 22.746094 C 50.663875 22.550594 50.408094 22.453125 50.152344 22.453125 z M 14.322266 25.464844 C 13.810016 25.464844 13.297703 25.660781 12.908203 26.050781 L 12.201172 26.757812 C 11.257172 27.701812 10.736328 28.957969 10.736328 30.292969 C 10.736328 31.288969 11.026453 32.237828 11.564453 33.048828 L 6.5429688 38.070312 C 3.0339688 41.579313 3.0339687 47.289828 6.5429688 50.798828 L 7.25 51.505859 L 3.7148438 55.042969 C 3.3238437 55.433969 3.3238437 56.064078 3.7148438 56.455078 C 4.1058438 56.846078 4.7379063 56.846078 5.1289062 56.455078 L 8.6640625 52.919922 L 9.3710938 53.626953 L 10.080078 54.333984 L 3.7167969 60.697266 C 3.3257969 61.088266 3.3257969 61.720328 3.7167969 62.111328 C 3.9117969 62.306328 4.1678281 62.404297 4.4238281 62.404297 C 4.6798281 62.404297 4.9358594 62.306328 5.1308594 62.111328 L 11.494141 55.748047 L 12.201172 56.455078 C 13.900172 58.155078 16.161453 59.091797 18.564453 59.091797 C 20.968453 59.091797 23.228734 58.155078 24.927734 56.455078 L 29.949219 51.433594 C 30.760219 51.971594 31.711031 52.263672 32.707031 52.263672 C 34.043031 52.263672 35.298188 51.742828 36.242188 50.798828 L 36.949219 50.091797 C 37.729219 49.311797 37.729219 48.043672 36.949219 47.263672 L 15.736328 26.050781 C 15.346828 25.660781 14.834516 25.464844 14.322266 25.464844 z M 14.320312 27.462891 L 35.535156 48.677734 L 34.828125 49.384766 C 33.695125 50.517766 31.718937 50.517766 30.585938 49.384766 L 13.615234 32.414062 C 13.049234 31.847062 12.736328 31.094969 12.736328 30.292969 C 12.736328 29.490969 13.048234 28.738875 13.615234 28.171875 L 14.320312 27.462891 z M 39.191406 30.878906 L 40.605469 32.292969 L 35.65625 37.242188 C 35.26625 37.631188 34.634187 37.633187 34.242188 37.242188 C 33.852187 36.852187 33.853187 36.218125 34.242188 35.828125 L 39.191406 30.878906 z M 12.908203 34.537109 L 28.464844 50.09375 L 23.515625 55.042969 C 22.193625 56.364969 20.434453 57.091797 18.564453 57.091797 C 16.695453 57.091797 14.937234 56.364969 13.615234 55.042969 L 12.908203 54.335938 L 10.787109 52.214844 L 7.9570312 49.386719 C 5.2280312 46.657719 5.2280312 42.215328 7.9570312 39.486328 L 12.908203 34.537109 z M 13.261719 38.130859 C 13.005969 38.130859 12.750187 38.230281 12.554688 38.425781 L 11.140625 39.839844 C 10.749625 40.230844 10.749625 40.862906 11.140625 41.253906 C 11.335625 41.448906 11.591656 41.546875 11.847656 41.546875 C 12.103656 41.546875 12.359687 41.448906 12.554688 41.253906 L 13.96875 39.839844 C 14.35975 39.448844 14.35975 38.816781 13.96875 38.425781 C 13.77325 38.230281 13.517469 38.130859 13.261719 38.130859 z M 16.796875 41.667969 C 16.541125 41.667969 16.285344 41.765437 16.089844 41.960938 L 14.675781 43.375 C 14.284781 43.766 14.284781 44.398063 14.675781 44.789062 C 14.870781 44.984063 15.126812 45.082031 15.382812 45.082031 C 15.638813 45.082031 15.894844 44.984063 16.089844 44.789062 L 17.503906 43.375 C 17.894906 42.984 17.894906 42.351937 17.503906 41.960938 C 17.308406 41.765438 17.052625 41.667969 16.796875 41.667969 z M 20.332031 45.201172 C 20.076281 45.201172 19.822453 45.298641 19.626953 45.494141 L 18.212891 46.910156 C 17.821891 47.301156 17.821891 47.934219 18.212891 48.324219 C 18.407891 48.520219 18.663922 48.617187 18.919922 48.617188 C 19.175922 48.617188 19.431953 48.519219 19.626953 48.324219 L 21.039062 46.908203 C 21.430063 46.517203 21.430063 45.884141 21.039062 45.494141 C 20.843562 45.298641 20.587781 45.201172 20.332031 45.201172 z M 23.867188 48.738281 C 23.611438 48.738281 23.355656 48.83575 23.160156 49.03125 L 21.746094 50.445312 C 21.355094 50.836312 21.355094 51.468375 21.746094 51.859375 C 21.941094 52.055375 22.197125 52.152344 22.453125 52.152344 C 22.709125 52.152344 22.965156 52.054375 23.160156 51.859375 L 24.574219 50.445312 C 24.965219 50.054313 24.965219 49.42225 24.574219 49.03125 C 24.378719 48.83575 24.122937 48.738281 23.867188 48.738281 z"/>
</svg>
